<?xml version="1.0" encoding="UTF-8"?>
<svg version="1.1" xmlns="http://www.w3.org/2000/svg" width="1500" height="1500">
<path d="M0 0 C495 0 990 0 1500 0 C1500 495 1500 990 1500 1500 C1005 1500 510 1500 0 1500 C0 1005 0 510 0 0 Z " fill="#3C3B3B" transform="translate(0,0)"/>
<path d="M0 0 C30.69 0 61.38 0 93 0 C95.30424001 43.78056022 95.30424001 43.78056022 96.1484375 62.90625 C96.24661337 65.10495491 96.34490429 67.30365469 96.44329834 69.50234985 C96.7024116 75.30280002 96.95949433 81.10333822 97.21591949 86.90390778 C97.37758761 90.55849407 97.5397658 94.21305742 97.7020874 97.86761475 C101.01934594 172.57023225 104.20904044 247.27573003 107 322 C107.33 322 107.66 322 108 322 C110.83624079 300.52071071 113.48987248 279.0271338 115.9375 257.5 C117.94429035 239.85512201 120.08532876 222.23449435 122.37371826 204.62402344 C124.55328763 187.82230146 126.52738549 171.00158868 128.44137573 154.16772461 C130.13051113 139.3257728 131.91846005 124.50303879 133.86587524 109.69281006 C135.12715778 100.08815948 136.30623892 90.47838099 137.38671875 80.8515625 C137.50136978 79.83036316 137.61602081 78.80916382 137.73414612 77.75701904 C138.29366416 72.75421685 138.84550627 67.75067039 139.38891602 62.74609375 C139.58737566 60.94791372 139.78586065 59.14973649 139.984375 57.3515625 C140.07269089 56.51823395 140.16100677 55.6849054 140.2519989 54.82632446 C140.88706976 49.11293024 140.88706976 49.11293024 142 48 C144.64738089 47.90488734 147.26859001 47.87444365 149.91625977 47.88647461 C150.74545929 47.88632858 151.57465881 47.88618256 152.4289856 47.8860321 C155.18315198 47.88673149 157.93725161 47.89452507 160.69140625 47.90234375 C162.59569766 47.90420784 164.49998955 47.90563178 166.40428162 47.90663147 C171.42667963 47.91045737 176.44904892 47.92028827 181.47143555 47.93133545 C186.5922812 47.94154802 191.71313148 47.94612876 196.83398438 47.95117188 C206.88933557 47.96191047 216.9446654 47.97898776 227 48 C227.48100863 50.98009706 227.9591767 53.96060586 228.43579102 56.94140625 C228.57026894 57.77273071 228.70474686 58.60405518 228.84329987 59.46057129 C230.07259904 67.17319593 230.93865535 74.90176183 231.70706177 82.67193604 C232.11367373 86.77984232 232.53839303 90.88589477 232.9609375 94.9921875 C233.04648392 95.82740936 233.13203033 96.66263123 233.22016907 97.52316284 C234.09958503 106.06501112 235.07332917 114.59527277 236.0625 123.125 C237.28313583 133.66154024 238.45733282 144.20054421 239.5625 154.75 C240.40914478 162.80951568 241.34537163 170.84515897 242.4375 178.875 C243.81423002 189.02133659 244.8881906 199.19085251 245.9375 209.375 C247.30402077 222.62530128 248.79123713 235.84985647 250.42504883 249.07006836 C251.897956 261.01768562 253.27066923 272.97590351 254.625 284.9375 C254.72932343 285.85799133 254.83364685 286.77848267 254.94113159 287.72686768 C256.31042144 299.81610069 257.66099258 311.90737781 259 324 C260.46502867 321.06994265 260.31289141 318.33799352 260.49316406 315.06860352 C260.55465763 313.98811359 260.55465763 313.98811359 260.61739349 312.88579559 C260.75414295 310.46703914 260.88475269 308.04798724 261.015625 305.62890625 C261.11201459 303.9107349 261.20888796 302.19259064 261.30621338 300.47447205 C261.51493825 296.77997152 261.72136907 293.08535312 261.92602539 289.390625 C262.47456456 279.50058765 263.04067167 269.61155193 263.609375 259.72265625 C263.66714111 258.71676579 263.72490723 257.71087532 263.78442383 256.67450333 C264.85791825 238.02550044 266.06864319 219.38790178 267.34573746 200.75187683 C269.25044463 172.94755133 270.96813887 145.13634919 272.5625 117.3125 C272.61432938 116.40842281 272.66615875 115.50434563 272.71955872 114.57287216 C272.82354901 112.75891774 272.92752943 110.94496275 273.03149986 109.13100719 C273.28776723 104.66024562 273.54418691 100.18949282 273.80078125 95.71875 C273.87597803 94.40789901 273.87597803 94.40789901 273.95269394 93.07056618 C274.96137451 75.50409273 276.02354167 57.94117164 277.12098312 40.38003159 C277.24833317 38.33921149 277.37500914 36.2983506 277.50149536 34.25747681 C277.73352342 30.52179302 277.96783982 26.78626116 278.203125 23.05078125 C278.26956711 21.98093994 278.33600922 20.91109863 278.40446472 19.80883789 C278.46854019 18.80240234 278.53261566 17.7959668 278.59863281 16.7590332 C278.65239075 15.90590042 278.70614868 15.05276764 278.76153564 14.17378235 C279.11687227 9.4445174 279.57062559 4.72311854 280 0 C308.38 0 336.76 0 366 0 C366 6.73413307 365.99119682 12.42251059 365.1171875 18.92578125 C365.02261261 19.65041061 364.92803772 20.37503998 364.83059692 21.12162781 C364.62534916 22.69302179 364.41724866 24.26404535 364.20654297 25.8347168 C363.61738385 30.23779185 363.05423481 34.64417492 362.4921875 39.05078125 C362.37115662 39.99849396 362.25012573 40.94620667 362.12542725 41.92263794 C360.60742606 53.93220869 359.31291515 65.96663747 358 78 C356.15710742 94.85309348 354.21386128 111.68542498 352.06298828 128.50195312 C350.47740284 140.9161102 349.06777448 153.34014078 347.75970459 165.78640747 C346.39662113 178.72360092 344.82292533 191.62674434 343.17724609 204.53076172 C341.65258134 216.50828743 340.26200429 228.49204679 339 240.5 C337.68547425 252.99960998 336.21933991 265.47055023 334.625 277.9375 C332.60362074 293.75353048 330.7968674 309.58755099 329.0625 325.4375 C326.8604466 345.55801634 324.50730621 365.6547045 322.00415039 385.73999023 C321.88473587 386.7001152 321.76532135 387.66024017 321.64228821 388.64945984 C321.4255237 390.38929258 321.20766375 392.12898956 320.98820496 393.8684845 C319.90141409 402.5707886 318.96883693 411.28046763 318 420 C283.68 420 249.36 420 214 420 C210.52050471 385.9170674 210.52050471 385.9170674 209.00976562 371.11523438 C207.98555586 361.08030971 206.96131154 351.04538859 205.93676758 341.01049805 C205.02871286 332.1164904 204.12087275 323.22246086 203.21322823 314.32841134 C203.04733172 312.70281777 202.88142669 311.07722506 202.71551323 309.45163321 C200.8303565 290.98114146 198.94847886 272.51032726 197.078125 254.03833008 C197.00075965 253.27430445 196.92339431 252.51027882 196.84368455 251.7231009 C196.53624475 248.68691938 196.22882385 245.65073594 195.92140883 242.6145519 C192.91098034 212.85198037 192.91098034 212.85198037 189.8203125 183.09765625 C189.74530832 182.38549013 189.67030415 181.67332401 189.59302711 180.9395771 C188.95885987 174.92318975 188.32111403 168.907183 187.68164062 162.89135742 C187.38615576 160.11044004 187.09195312 157.32939213 186.79904175 154.54820251 C186.53503336 152.04242628 186.26923713 149.53683724 186.00100708 147.0315094 C185.16004173 139.03087583 184.52843115 131.02717727 184 123 C183.81207886 124.81359009 183.81207886 124.81359009 183.62036133 126.66381836 C181.44696776 147.5873956 179.24448411 168.50202903 176.625 189.375 C174.40263758 207.12429175 172.46168914 224.90133828 170.5625 242.6875 C170.41231694 244.09317061 170.26212976 245.49884077 170.11193848 246.9045105 C169.81154283 249.71652177 169.51120531 252.52853925 169.21090698 255.34056091 C169.13675442 256.03490171 169.06260185 256.72924252 168.98620224 257.44462395 C168.83650082 258.84655318 168.68683501 260.24848622 168.53720474 261.65042305 C167.01429063 275.91622796 165.45801492 290.17823038 163.875 304.4375 C163.75183411 305.54758423 163.62866821 306.65766846 163.50177002 307.8013916 C161.79117661 323.19024957 159.99991448 338.56791544 158.1338501 353.93865967 C156.87884874 364.28701906 155.70194723 374.64053579 154.61328125 385.0078125 C154.49863022 386.09882767 154.38397919 387.18984283 154.26585388 388.31391907 C153.70646537 393.65504017 153.15440935 398.99682118 152.61108398 404.33959961 C152.41263975 406.25895618 152.21415555 408.17830861 152.015625 410.09765625 C151.92730911 410.98707916 151.83899323 411.87650208 151.7480011 412.7928772 C151.11299137 418.88700863 151.11299137 418.88700863 150 420 C148.63391674 420.09535213 147.26294545 420.1218867 145.89353943 420.12025452 C145.00867859 420.12162918 144.12381775 420.12300385 143.21214294 420.12442017 C142.23391068 420.12082489 141.25567841 420.11722961 140.24780273 420.11352539 C139.2235318 420.11367142 138.19926086 420.11381744 137.14395142 420.1139679 C133.74047771 420.11326828 130.33705796 420.10547363 126.93359375 420.09765625 C124.58089732 420.09579224 122.2282005 420.09436826 119.87550354 420.09336853 C113.66943295 420.08954199 107.4633856 420.07971055 101.25732422 420.06866455 C94.93001622 420.05845334 88.60270448 420.05387154 82.27539062 420.04882812 C69.85025018 420.0380884 57.42512702 420.02101036 45 420 C44.45657081 415.42009256 43.91444303 410.84003341 43.37341309 406.25984192 C43.18999601 404.70855256 43.00625087 403.15730195 42.82214355 401.60609436 C41.35867203 389.27265311 40.03160649 376.93085596 38.77734375 364.57421875 C37.9085457 356.04553676 36.98745671 347.52273628 36.0625 339 C35.97822754 338.22296722 35.89395508 337.44593445 35.80712891 336.64535522 C35.37718153 332.68149636 34.94678014 328.717687 34.51611328 324.75390625 C33.75765888 317.77104915 33.00345542 310.78773267 32.24899292 303.80444336 C31.83284193 299.95294278 31.41640635 296.10147298 31 292.25 C30.83333197 290.70833348 30.66666531 289.16666681 30.5 287.625 C30.37625 286.4803125 30.37625 286.4803125 30.25 285.3125 C27.33333333 258.33333333 24.41666667 231.35416667 21.5 204.375 C21.42206585 203.65411509 21.3441317 202.93323017 21.26383591 202.19050026 C21.09791931 200.65576038 20.93200729 199.12102 20.76610184 197.58627892 C20.35206381 193.75620598 19.93794826 189.92614147 19.52362061 186.09609985 C18.74195539 178.86945423 17.96109678 171.64272739 17.18457031 164.41552734 C15.23068754 146.25405284 13.24350628 128.09633559 11.24197054 109.94005418 C10.69932791 105.01733276 10.15736611 100.09453677 9.61584473 95.17169189 C9.49960888 94.11505596 9.49960888 94.11505596 9.38102484 93.03707385 C9.06536285 90.16743377 8.7497251 87.29779103 8.43416119 84.42814016 C7.54541615 76.34623239 6.65534755 68.26447483 5.76171875 60.18310547 C5.03956954 53.65239241 4.32009949 47.12139048 3.60378003 40.59003532 C3.22799431 37.16455903 2.85089315 33.73923979 2.47048187 30.31427383 C2.05070922 26.52906492 1.6356407 22.74336779 1.22167969 18.95751953 C1.09705353 17.84392059 0.97242737 16.73032166 0.84402466 15.58297729 C0.73200714 14.54981384 0.61998962 13.51665039 0.50457764 12.45217896 C0.4065321 11.56277178 0.30848656 10.6733646 0.20746994 9.75700569 C-0.03663961 6.51310717 0 3.25307041 0 0 Z " fill="#FDFDFD" transform="translate(385,522)"/>
<path d="M0 0 C39.93 0 79.86 0 121 0 C124.41178779 10.23536338 127.72970071 20.31521497 130.71875 30.65234375 C132.07129639 35.29221189 133.53103219 39.89589779 135 44.5 C137.1495288 51.24335156 139.20124593 58.00761542 141.17797852 64.8034668 C142.73682981 70.14765494 144.38060702 75.46128417 146.05493164 80.77026367 C147.75159726 86.16598979 149.38269827 91.58000663 151 97 C152.98747621 103.65877067 155.01924453 110.30072821 157.10766602 116.9284668 C158.76600409 122.20894702 160.35688489 127.50829596 161.9375 132.8125 C163.9182664 139.45771342 165.95770561 146.08054028 168.0625 152.6875 C169.86102966 158.3357655 171.6040473 163.99294792 173.25 169.6875 C175.70337387 178.16535079 178.35597185 186.58023231 181 195 C183.95266283 204.40343835 186.8549293 213.81275559 189.59375 223.28125 C191.6334726 230.21630683 193.83455324 237.10340386 196 244 C198.95257354 253.40346708 201.85492863 262.81275327 204.59375 272.28125 C207.02718295 280.55492205 209.66522609 288.76980572 212.25976562 296.99414062 C214.3501509 303.63407255 216.38986884 310.28331099 218.3359375 316.96679688 C220.63241203 324.81057044 223.0198873 332.62347658 225.45013428 340.42671204 C226.15045505 342.67548782 226.84908682 344.92478297 227.54736328 347.17419434 C229.03016976 351.94990031 230.51492259 356.7249998 232 361.5 C233.72537803 367.04764377 235.44988233 372.59555627 237.17230225 378.14411926 C237.84967246 380.32471537 238.52854781 382.50483865 239.20751953 384.68493652 C240.26497546 388.08504203 241.31358709 391.48775652 242.3548584 394.89285278 C242.80386972 396.35940363 243.25495309 397.82532101 243.7076416 399.29074097 C244.41909296 401.5998949 245.12078043 403.91182025 245.8203125 406.22460938 C246.14840408 407.2819717 246.14840408 407.2819717 246.48312378 408.36069489 C247.62514709 412.17622486 248 414.9331088 248 419 C213.35 419 178.7 419 143 419 C139.01788389 405.0625936 135.27148496 391.2230707 132 377.125 C131.14158762 373.45748994 130.27887224 369.79100647 129.4140625 366.125 C129.20609039 365.24264679 128.99811829 364.36029358 128.78384399 363.45120239 C126.87508577 355.39356935 124.8187477 347.38020404 122.625 339.39501953 C122.29628906 338.18241455 122.29628906 338.18241455 121.9609375 336.9453125 C121.77321777 336.27000488 121.58549805 335.59469727 121.39208984 334.89892578 C121 333 121 333 121 329 C60.115 329.495 60.115 329.495 -2 330 C-3.98 338.58 -5.96 347.16 -8 356 C-11 367.5 -11 367.5 -12.4921875 373.12109375 C-14.44476255 380.60426762 -16.14475941 388.14591036 -17.8203125 395.6953125 C-19.59518767 403.5914901 -21.76537878 411.17882573 -24 419 C-57.99 419 -91.98 419 -127 419 C-124.77205882 406.74632353 -124.77205882 406.74632353 -122.75 401.125 C-120.59892374 394.97629106 -118.75428616 388.7728679 -117 382.5 C-114.95993272 375.22756193 -112.72618577 368.08423533 -110.28125 360.9375 C-108.69273018 356.17194054 -107.35697152 351.33550257 -106 346.5 C-104.30098761 340.44565129 -102.53554775 334.45006264 -100.5 328.5 C-98.54557196 322.77321562 -96.82474986 317.0125195 -95.1875 311.1875 C-91.99625641 299.84581612 -88.52830059 288.59599527 -85.03662109 277.34375 C-83.32904634 271.83575568 -81.63317616 266.32416689 -79.9375 260.8125 C-79.60580811 259.73484375 -79.27411621 258.6571875 -78.93237305 257.546875 C-75.59754795 246.70521538 -72.2963333 235.85341284 -69 225 C-65.01889322 211.89192156 -61.01644601 198.79077844 -56.98291016 185.69873047 C-53.62902466 174.80711296 -50.31183788 163.90446279 -47 153 C-43.01889322 139.89192156 -39.01644601 126.79077844 -34.98291016 113.69873047 C-32.78887468 106.57368244 -30.60685655 99.4450999 -28.4375 92.3125 C-28.01235107 90.91547852 -28.01235107 90.91547852 -27.57861328 89.49023438 C-26.10816207 84.65527671 -24.64296578 79.81878231 -23.18359375 74.98046875 C-18.1719412 58.39486268 -18.1719412 58.39486268 -15.4375 50.375 C-13.12870906 43.57731389 -11.17830418 36.69910262 -9.23901367 29.78808594 C-7.37619744 23.19500618 -5.31128791 16.70273493 -3.078125 10.2265625 C-1.94992635 6.8501419 -0.97798593 3.42295074 0 0 Z " fill="#FEFEFE" transform="translate(871,522)"/>
<path d="M0 0 C6.60289286 3.13831614 12.70608515 6.83547375 18.875 10.75 C21.01380493 12.09717688 23.15314672 13.44350174 25.29296875 14.7890625 C26.39560059 15.48290039 27.49823242 16.17673828 28.63427734 16.89160156 C34.13188939 20.33548504 39.65909669 23.73084236 45.1875 27.125 C47.37245127 28.46735769 49.55734777 29.80980452 51.7421875 31.15234375 C52.7950293 31.79929199 53.84787109 32.44624023 54.93261719 33.11279297 C62.11716396 37.5330848 69.28551242 41.97959474 76.45556641 46.42333984 C80.80276643 49.11708555 85.15147177 51.80839917 89.5 54.5 C91.25000693 55.58332213 93.00000694 56.66665546 94.75 57.75 C95.61625 58.28625 96.4825 58.8225 97.375 59.375 C128 78.33333333 158.625 97.29166667 189.25 116.25 C190.11705566 116.7867334 190.98411133 117.3234668 191.87744141 117.87646484 C193.61935894 118.95482563 195.36122134 120.03327549 197.10302734 121.11181641 C201.60123045 123.8969798 206.10051465 126.68037342 210.6015625 129.4609375 C211.52646484 130.03263672 212.45136719 130.60433594 213.40429688 131.19335938 C215.1474237 132.27076942 216.89088284 133.3476421 218.63476562 134.42382812 C220.20934755 135.39736675 221.77555215 136.38464627 223.33117676 137.38819885 C225.97068183 139.05181378 225.97068183 139.05181378 228.82641602 140.29124451 C233.36616578 142.56828087 236.40729561 144.26173319 238.0944519 149.20977783 C238.5936872 153.29316629 238.74513859 157.24764117 238.7421875 161.35546875 C238.76996809 162.86375204 238.79979958 164.3719988 238.83157349 165.88020325 C238.88376704 169.03743062 238.89235435 172.19131049 238.87353516 175.34887695 C238.85922075 178.57108259 238.91449335 181.77940246 239.03759766 184.99926758 C240.00695836 210.6360071 240.00695836 210.6360071 235.24264526 217.55044556 C230.89070962 221.63244221 225.90537925 223.93916094 220.37695312 226.04916382 C217.04475198 227.38212128 214.2983195 229.17200509 211.30078125 231.14453125 C209.30525111 232.36810717 207.30915744 233.5907645 205.3125 234.8125 C192.83131781 242.4724546 180.40857291 250.22314193 168 258 C154.60561474 266.39469888 141.18575442 274.74407501 127.71582031 283.01708984 C116.43811074 289.94905914 105.21680689 296.97006063 94 304 C80.61009719 312.39188958 67.19570941 320.74011751 53.72900391 329.00830078 C45.30169146 334.18686345 36.91083273 339.421836 28.52929688 344.67407227 C19.72743538 350.18411451 10.8755668 355.60966208 2 361 C-2.73762364 356.70130082 -6.01097768 351.76160884 -9.48046875 346.4140625 C-10.09336258 345.48008636 -10.70625641 344.54611023 -11.33772278 343.58383179 C-13.2932941 340.60120632 -15.24059837 337.61329007 -17.1875 334.625 C-18.47664981 332.65457898 -19.76635825 330.68452332 -21.05664062 328.71484375 C-22.94456117 325.83254301 -24.83201468 322.94994935 -26.7170105 320.06573486 C-31.7639722 312.34525893 -36.86331415 304.66101294 -42 297 C-39.32628492 294.15386101 -36.76484271 292.08047256 -33.37890625 290.14453125 C-31.99868286 289.34813232 -31.99868286 289.34813232 -30.59057617 288.53564453 C-29.59131104 287.96700684 -28.5920459 287.39836914 -27.5625 286.8125 C-25.38253334 285.55647396 -23.2028584 284.29994152 -21.0234375 283.04296875 C-19.86426214 282.37678284 -18.70508239 281.71060457 -17.54589844 281.04443359 C-12.18269642 277.9573646 -6.84574024 274.82545169 -1.50860596 271.69360352 C0.32545325 270.61739918 2.16001766 269.54205982 3.99462891 268.46679688 C12.28224084 263.60714362 20.55116377 258.71668252 28.8125 253.8125 C39.11145736 247.69891269 49.44245232 241.64297562 59.79296875 235.6171875 C66.59900201 231.65401477 73.3939101 227.67194619 80.1875 223.6875 C80.79197968 223.3329776 81.39645935 222.9784552 82.01925659 222.6131897 C84.48036781 221.16972451 86.94145961 219.72622624 89.40248108 218.28260803 C93.7725672 215.71931382 98.1438358 213.15804453 102.515625 210.59765625 C114.70419991 203.45845048 126.88781002 196.31147074 139.03881836 189.10839844 C143.67039886 186.36503917 148.31801389 183.65649077 153 181 C149.93293545 178.59188397 146.75036018 176.62813616 143.36328125 174.69921875 C142.24147461 174.05903809 141.11966797 173.41885742 139.96386719 172.75927734 C138.74679478 172.0685968 137.52967107 171.37800665 136.3125 170.6875 C135.04971964 169.96841105 133.78702551 169.24917065 132.52441406 168.52978516 C123.429773 163.35385362 114.29765183 158.24615888 105.1574707 153.15112305 C97.05034232 148.61902424 89.02776672 143.95193968 81.01855469 139.24951172 C72.85740626 134.46994408 64.61523139 129.84633398 56.35107422 125.24780273 C49.22371733 121.27184365 42.16060908 117.19836002 35.125 113.0625 C26.6503486 108.08266532 18.1059811 103.24914257 9.5 98.5 C-2.24732486 92.01685822 -13.84771885 85.30657776 -25.41650391 78.51123047 C-30.91722905 75.29355057 -36.45621657 72.14277863 -42 69 C-40.6304631 65.30258297 -38.94744107 62.084528 -36.8671875 58.73828125 C-36.23353271 57.71420166 -35.59987793 56.69012207 -34.94702148 55.63500977 C-34.26325439 54.53858154 -33.5794873 53.44215332 -32.875 52.3125 C-32.16113477 51.16162803 -31.4476812 50.01050063 -30.73461914 48.85913086 C-29.24631383 46.45657108 -27.75622223 44.05513202 -26.26513672 41.65429688 C-24.04271965 38.07273439 -21.83379482 34.48299847 -19.62890625 30.890625 C-19.27526001 30.31463058 -18.92161377 29.73863617 -18.55725098 29.14518738 C-16.86888874 26.39502867 -15.18109156 23.64452397 -13.49365234 20.89379883 C-1.68605435 1.68605435 -1.68605435 1.68605435 0 0 Z " fill="#FEFEFE" transform="translate(108,571)"/>
<path d="M0 0 C99.99 0 199.98 0 303 0 C303 24.75 303 49.5 303 75 C203.01 75 103.02 75 0 75 C0 50.25 0 25.5 0 0 Z " fill="#FEFEFE" transform="translate(1143,979)"/>
<path d="M0 0 C0.33 0 0.66 0 1 0 C1.15557373 0.68811768 1.31114746 1.37623535 1.47143555 2.08520508 C5.25556276 18.84896503 5.25556276 18.84896503 9.5 35.5 C11.8205547 44.07808282 13.80073061 52.72199716 15.76953125 61.38671875 C17.23376615 67.79180784 18.78439717 74.15780371 20.5 80.5 C22.82043311 89.07811723 24.80072941 97.72199186 26.76953125 106.38671875 C28.23376615 112.79180784 29.78439717 119.15780371 31.5 125.5 C33.81623607 134.06260174 35.79773545 142.68993356 37.75634766 151.34057617 C39.49988384 158.98823116 41.3993084 166.5768876 43.52734375 174.12695312 C44.59165362 177.99300587 45 180.91938347 45 185 C15.3 185 -14.4 185 -45 185 C-44.39698613 180.77890291 -43.84970499 177.03270378 -42.80078125 172.98046875 C-42.56431885 172.05451904 -42.32785645 171.12856934 -42.08422852 170.17456055 C-41.82955811 169.18883057 -41.5748877 168.20310059 -41.3125 167.1875 C-39.11187474 158.54508068 -37.03187635 149.88541362 -35.0625 141.1875 C-32.77163292 131.10542039 -30.24005074 121.10345219 -27.60571289 111.10620117 C-25.59660902 103.43311663 -23.74929564 95.73618983 -22 88 C-19.99230086 79.12103106 -17.81942304 70.30266013 -15.5 61.5 C-12.32050704 49.42211258 -9.4746282 37.28514906 -6.70849609 25.10693359 C-5.5543753 20.04582361 -4.37688524 14.99042675 -3.1875 9.9375 C-2.98044434 9.04434082 -2.77338867 8.15118164 -2.56005859 7.23095703 C-1.11546338 1.11546338 -1.11546338 1.11546338 0 0 Z " fill="#3C3C3C" transform="translate(930,594)"/>
<path d="M0 0 C0.33 0 0.66 0 1 0 C1 1.65 1 3.3 1 5 C1.66 5 2.32 5 3 5 C2.67 8.63 2.34 12.26 2 16 C1.67 16 1.34 16 1 16 C0.67 10.72 0.34 5.44 0 0 Z " fill="#626262" transform="translate(491,836)"/>
</svg>
