<?xml version="1.0" encoding="UTF-8"?>
<svg xmlns="http://www.w3.org/2000/svg" viewBox="0 0 128 128">
<defs><clipPath id="r"><rect width="128" height="128" rx="19"/></clipPath></defs>
<g clip-path="url(#r)">
<rect width="128" height="128" fill="#111110"/>
<rect x="18" y="44" width="14" height="1" fill="#fff"/>
<rect x="43" y="44" width="6" height="1" fill="#fff"/>
<rect x="60" y="44" width="12" height="1" fill="#fff"/>
<rect x="88" y="44" width="6" height="1" fill="#fff"/>
<rect x="18" y="45" width="14" height="1" fill="#fff"/>
<rect x="43" y="45" width="6" height="1" fill="#fff"/>
<rect x="60" y="45" width="12" height="1" fill="#fff"/>
<rect x="88" y="45" width="6" height="1" fill="#fff"/>
<rect x="21" y="46" width="6" height="1" fill="#fff"/>
<rect x="43" y="46" width="6" height="1" fill="#fff"/>
<rect x="65" y="46" width="4" height="1" fill="#fff"/>
<rect x="87" y="46" width="8" height="1" fill="#fff"/>
<rect x="22" y="47" width="5" height="1" fill="#fff"/>
<rect x="42" y="47" width="7" height="1" fill="#fff"/>
<rect x="65" y="47" width="3" height="1" fill="#fff"/>
<rect x="87" y="47" width="8" height="1" fill="#fff"/>
<rect x="22" y="48" width="5" height="1" fill="#fff"/>
<rect x="42" y="48" width="8" height="1" fill="#fff"/>
<rect x="65" y="48" width="3" height="1" fill="#fff"/>
<rect x="87" y="48" width="8" height="1" fill="#fff"/>
<rect x="22" y="49" width="6" height="1" fill="#fff"/>
<rect x="42" y="49" width="8" height="1" fill="#fff"/>
<rect x="64" y="49" width="4" height="1" fill="#fff"/>
<rect x="86" y="49" width="3" height="1" fill="#fff"/>
<rect x="91" y="49" width="5" height="1" fill="#fff"/>
<rect x="23" y="50" width="5" height="1" fill="#fff"/>
<rect x="42" y="50" width="8" height="1" fill="#fff"/>
<rect x="64" y="50" width="4" height="1" fill="#fff"/>
<rect x="86" y="50" width="3" height="1" fill="#fff"/>
<rect x="91" y="50" width="5" height="1" fill="#fff"/>
<rect x="23" y="51" width="5" height="1" fill="#fff"/>
<rect x="41" y="51" width="4" height="1" fill="#fff"/>
<rect x="46" y="51" width="4" height="1" fill="#fff"/>
<rect x="64" y="51" width="3" height="1" fill="#fff"/>
<rect x="86" y="51" width="3" height="1" fill="#fff"/>
<rect x="91" y="51" width="6" height="1" fill="#fff"/>
<rect x="23" y="52" width="5" height="1" fill="#fff"/>
<rect x="41" y="52" width="3" height="1" fill="#fff"/>
<rect x="46" y="52" width="5" height="1" fill="#fff"/>
<rect x="64" y="52" width="3" height="1" fill="#fff"/>
<rect x="85" y="52" width="3" height="1" fill="#fff"/>
<rect x="92" y="52" width="5" height="1" fill="#fff"/>
<rect x="23" y="53" width="5" height="1" fill="#fff"/>
<rect x="41" y="53" width="3" height="1" fill="#fff"/>
<rect x="46" y="53" width="5" height="1" fill="#fff"/>
<rect x="64" y="53" width="3" height="1" fill="#fff"/>
<rect x="85" y="53" width="3" height="1" fill="#fff"/>
<rect x="92" y="53" width="5" height="1" fill="#fff"/>
<rect x="24" y="54" width="5" height="1" fill="#fff"/>
<rect x="41" y="54" width="3" height="1" fill="#fff"/>
<rect x="46" y="54" width="5" height="1" fill="#fff"/>
<rect x="63" y="54" width="4" height="1" fill="#fff"/>
<rect x="85" y="54" width="3" height="1" fill="#fff"/>
<rect x="92" y="54" width="6" height="1" fill="#fff"/>
<rect x="24" y="55" width="5" height="1" fill="#fff"/>
<rect x="40" y="55" width="4" height="1" fill="#fff"/>
<rect x="47" y="55" width="4" height="1" fill="#fff"/>
<rect x="63" y="55" width="3" height="1" fill="#fff"/>
<rect x="84" y="55" width="3" height="1" fill="#fff"/>
<rect x="93" y="55" width="5" height="1" fill="#fff"/>
<rect x="24" y="56" width="5" height="1" fill="#fff"/>
<rect x="40" y="56" width="3" height="1" fill="#fff"/>
<rect x="47" y="56" width="5" height="1" fill="#fff"/>
<rect x="63" y="56" width="3" height="1" fill="#fff"/>
<rect x="84" y="56" width="3" height="1" fill="#fff"/>
<rect x="93" y="56" width="5" height="1" fill="#fff"/>
<rect x="24" y="57" width="5" height="1" fill="#fff"/>
<rect x="40" y="57" width="3" height="1" fill="#fff"/>
<rect x="47" y="57" width="5" height="1" fill="#fff"/>
<rect x="63" y="57" width="3" height="1" fill="#fff"/>
<rect x="83" y="57" width="4" height="1" fill="#fff"/>
<rect x="93" y="57" width="6" height="1" fill="#fff"/>
<rect x="25" y="58" width="5" height="1" fill="#fff"/>
<rect x="40" y="58" width="3" height="1" fill="#fff"/>
<rect x="47" y="58" width="5" height="1" fill="#fff"/>
<rect x="62" y="58" width="4" height="1" fill="#fff"/>
<rect x="83" y="58" width="3" height="1" fill="#fff"/>
<rect x="94" y="58" width="5" height="1" fill="#fff"/>
<rect x="25" y="59" width="5" height="1" fill="#fff"/>
<rect x="39" y="59" width="3" height="1" fill="#fff"/>
<rect x="48" y="59" width="5" height="1" fill="#fff"/>
<rect x="62" y="59" width="3" height="1" fill="#fff"/>
<rect x="83" y="59" width="3" height="1" fill="#fff"/>
<rect x="94" y="59" width="5" height="1" fill="#fff"/>
<rect x="25" y="60" width="5" height="1" fill="#fff"/>
<rect x="39" y="60" width="3" height="1" fill="#fff"/>
<rect x="48" y="60" width="5" height="1" fill="#fff"/>
<rect x="62" y="60" width="3" height="1" fill="#fff"/>
<rect x="82" y="60" width="4" height="1" fill="#fff"/>
<rect x="94" y="60" width="6" height="1" fill="#fff"/>
<rect x="25" y="61" width="5" height="1" fill="#fff"/>
<rect x="39" y="61" width="3" height="1" fill="#fff"/>
<rect x="48" y="61" width="5" height="1" fill="#fff"/>
<rect x="62" y="61" width="3" height="1" fill="#fff"/>
<rect x="82" y="61" width="3" height="1" fill="#fff"/>
<rect x="95" y="61" width="5" height="1" fill="#fff"/>
<rect x="26" y="62" width="5" height="1" fill="#fff"/>
<rect x="39" y="62" width="3" height="1" fill="#fff"/>
<rect x="48" y="62" width="5" height="1" fill="#fff"/>
<rect x="61" y="62" width="4" height="1" fill="#fff"/>
<rect x="82" y="62" width="3" height="1" fill="#fff"/>
<rect x="95" y="62" width="5" height="1" fill="#fff"/>
<rect x="26" y="63" width="5" height="1" fill="#fff"/>
<rect x="38" y="63" width="3" height="1" fill="#fff"/>
<rect x="49" y="63" width="5" height="1" fill="#fff"/>
<rect x="61" y="63" width="3" height="1" fill="#fff"/>
<rect x="81" y="63" width="4" height="1" fill="#fff"/>
<rect x="95" y="63" width="6" height="1" fill="#fff"/>
<rect x="26" y="64" width="5" height="1" fill="#fff"/>
<rect x="38" y="64" width="3" height="1" fill="#fff"/>
<rect x="49" y="64" width="5" height="1" fill="#fff"/>
<rect x="61" y="64" width="3" height="1" fill="#fff"/>
<rect x="81" y="64" width="3" height="1" fill="#fff"/>
<rect x="96" y="64" width="5" height="1" fill="#fff"/>
<rect x="26" y="65" width="5" height="1" fill="#fff"/>
<rect x="38" y="65" width="3" height="1" fill="#fff"/>
<rect x="49" y="65" width="5" height="1" fill="#fff"/>
<rect x="61" y="65" width="3" height="1" fill="#fff"/>
<rect x="81" y="65" width="3" height="1" fill="#fff"/>
<rect x="96" y="65" width="5" height="1" fill="#fff"/>
<rect x="27" y="66" width="5" height="1" fill="#fff"/>
<rect x="38" y="66" width="3" height="1" fill="#fff"/>
<rect x="50" y="66" width="4" height="1" fill="#fff"/>
<rect x="60" y="66" width="4" height="1" fill="#fff"/>
<rect x="80" y="66" width="4" height="1" fill="#fff"/>
<rect x="96" y="66" width="6" height="1" fill="#fff"/>
<rect x="27" y="67" width="5" height="1" fill="#fff"/>
<rect x="37" y="67" width="3" height="1" fill="#fff"/>
<rect x="50" y="67" width="5" height="1" fill="#fff"/>
<rect x="60" y="67" width="3" height="1" fill="#fff"/>
<rect x="80" y="67" width="3" height="1" fill="#fff"/>
<rect x="97" y="67" width="5" height="1" fill="#fff"/>
<rect x="27" y="68" width="5" height="1" fill="#fff"/>
<rect x="37" y="68" width="3" height="1" fill="#fff"/>
<rect x="50" y="68" width="5" height="1" fill="#fff"/>
<rect x="60" y="68" width="3" height="1" fill="#fff"/>
<rect x="80" y="68" width="22" height="1" fill="#fff"/>
<rect x="27" y="69" width="5" height="1" fill="#fff"/>
<rect x="37" y="69" width="3" height="1" fill="#fff"/>
<rect x="50" y="69" width="5" height="1" fill="#fff"/>
<rect x="60" y="69" width="3" height="1" fill="#fff"/>
<rect x="79" y="69" width="24" height="1" fill="#fff"/>
<rect x="28" y="70" width="5" height="1" fill="#fff"/>
<rect x="37" y="70" width="3" height="1" fill="#fff"/>
<rect x="51" y="70" width="4" height="1" fill="#fff"/>
<rect x="59" y="70" width="4" height="1" fill="#fff"/>
<rect x="79" y="70" width="24" height="1" fill="#fff"/>
<rect x="28" y="71" width="5" height="1" fill="#fff"/>
<rect x="36" y="71" width="3" height="1" fill="#fff"/>
<rect x="51" y="71" width="5" height="1" fill="#fff"/>
<rect x="59" y="71" width="3" height="1" fill="#fff"/>
<rect x="79" y="71" width="3" height="1" fill="#fff"/>
<rect x="98" y="71" width="5" height="1" fill="#fff"/>
<rect x="28" y="72" width="5" height="1" fill="#fff"/>
<rect x="36" y="72" width="3" height="1" fill="#fff"/>
<rect x="51" y="72" width="5" height="1" fill="#fff"/>
<rect x="59" y="72" width="3" height="1" fill="#fff"/>
<rect x="78" y="72" width="4" height="1" fill="#fff"/>
<rect x="98" y="72" width="6" height="1" fill="#fff"/>
<rect x="28" y="73" width="5" height="1" fill="#fff"/>
<rect x="36" y="73" width="3" height="1" fill="#fff"/>
<rect x="51" y="73" width="5" height="1" fill="#fff"/>
<rect x="59" y="73" width="3" height="1" fill="#fff"/>
<rect x="78" y="73" width="3" height="1" fill="#fff"/>
<rect x="99" y="73" width="5" height="1" fill="#fff"/>
<rect x="29" y="74" width="4" height="1" fill="#fff"/>
<rect x="35" y="74" width="4" height="1" fill="#fff"/>
<rect x="52" y="74" width="4" height="1" fill="#fff"/>
<rect x="59" y="74" width="3" height="1" fill="#fff"/>
<rect x="78" y="74" width="3" height="1" fill="#fff"/>
<rect x="99" y="74" width="5" height="1" fill="#fff"/>
<rect x="29" y="75" width="5" height="1" fill="#fff"/>
<rect x="35" y="75" width="3" height="1" fill="#fff"/>
<rect x="52" y="75" width="5" height="1" fill="#fff"/>
<rect x="58" y="75" width="3" height="1" fill="#fff"/>
<rect x="77" y="75" width="4" height="1" fill="#fff"/>
<rect x="99" y="75" width="6" height="1" fill="#fff"/>
<rect x="29" y="76" width="5" height="1" fill="#fff"/>
<rect x="35" y="76" width="3" height="1" fill="#fff"/>
<rect x="52" y="76" width="5" height="1" fill="#fff"/>
<rect x="58" y="76" width="3" height="1" fill="#fff"/>
<rect x="77" y="76" width="3" height="1" fill="#fff"/>
<rect x="100" y="76" width="5" height="1" fill="#fff"/>
<rect x="29" y="77" width="5" height="1" fill="#fff"/>
<rect x="35" y="77" width="3" height="1" fill="#fff"/>
<rect x="53" y="77" width="4" height="1" fill="#fff"/>
<rect x="58" y="77" width="3" height="1" fill="#fff"/>
<rect x="77" y="77" width="3" height="1" fill="#fff"/>
<rect x="100" y="77" width="6" height="1" fill="#fff"/>
<rect x="30" y="78" width="7" height="1" fill="#fff"/>
<rect x="53" y="78" width="8" height="1" fill="#fff"/>
<rect x="76" y="78" width="4" height="1" fill="#fff"/>
<rect x="100" y="78" width="6" height="1" fill="#fff"/>
<rect x="30" y="79" width="7" height="1" fill="#fff"/>
<rect x="53" y="79" width="7" height="1" fill="#fff"/>
<rect x="76" y="79" width="3" height="1" fill="#fff"/>
<rect x="101" y="79" width="5" height="1" fill="#fff"/>
<rect x="30" y="80" width="7" height="1" fill="#fff"/>
<rect x="53" y="80" width="7" height="1" fill="#fff"/>
<rect x="75" y="80" width="4" height="1" fill="#fff"/>
<rect x="101" y="80" width="6" height="1" fill="#fff"/>
<rect x="30" y="81" width="7" height="1" fill="#fff"/>
<rect x="54" y="81" width="6" height="1" fill="#fff"/>
<rect x="73" y="81" width="10" height="1" fill="#fff"/>
<rect x="97" y="81" width="13" height="1" fill="#fff"/>
<rect x="31" y="82" width="5" height="1" fill="#fff"/>
<rect x="54" y="82" width="6" height="1" fill="#fff"/>
<rect x="72" y="82" width="12" height="1" fill="#fff"/>
<rect x="96" y="82" width="14" height="1" fill="#fff"/>
<rect x="31" y="83" width="5" height="1" fill="#fff"/>
<rect x="54" y="83" width="5" height="1" fill="#fff"/>
<rect x="72" y="83" width="12" height="1" fill="#fff"/>
<rect x="96" y="83" width="14" height="1" fill="#fff"/>
</g>
</svg>