<?xml version="1.0" encoding="UTF-8"?>
<svg xmlns="http://www.w3.org/2000/svg" viewBox="0 0 128 128">
<defs><clipPath id="r"><rect width="128" height="128" rx="19"/></clipPath></defs>
<g clip-path="url(#r)">
<rect width="128" height="128" fill="#121212"/>
<rect x="9" y="41" width="19" height="1" fill="#fff"/>
<rect x="37" y="41" width="17" height="1" fill="#fff"/>
<rect x="64" y="41" width="14" height="1" fill="#fff"/>
<rect x="95" y="41" width="2" height="1" fill="#fff"/>
<rect x="9" y="42" width="19" height="1" fill="#fff"/>
<rect x="36" y="42" width="18" height="1" fill="#fff"/>
<rect x="64" y="42" width="14" height="1" fill="#fff"/>
<rect x="94" y="42" width="4" height="1" fill="#fff"/>
<rect x="9" y="43" width="18" height="1" fill="#fff"/>
<rect x="37" y="43" width="17" height="1" fill="#fff"/>
<rect x="65" y="43" width="13" height="1" fill="#fff"/>
<rect x="94" y="43" width="4" height="1" fill="#fff"/>
<rect x="13" y="44" width="10" height="1" fill="#fff"/>
<rect x="39" y="44" width="10" height="1" fill="#fff"/>
<rect x="68" y="44" width="6" height="1" fill="#fff"/>
<rect x="93" y="44" width="5" height="1" fill="#fff"/>
<rect x="14" y="45" width="9" height="1" fill="#fff"/>
<rect x="40" y="45" width="9" height="1" fill="#fff"/>
<rect x="68" y="45" width="5" height="1" fill="#fff"/>
<rect x="93" y="45" width="6" height="1" fill="#fff"/>
<rect x="15" y="46" width="8" height="1" fill="#fff"/>
<rect x="41" y="46" width="8" height="1" fill="#fff"/>
<rect x="68" y="46" width="5" height="1" fill="#fff"/>
<rect x="93" y="46" width="6" height="1" fill="#fff"/>
<rect x="15" y="47" width="8" height="1" fill="#fff"/>
<rect x="41" y="47" width="8" height="1" fill="#fff"/>
<rect x="68" y="47" width="4" height="1" fill="#fff"/>
<rect x="92" y="47" width="8" height="1" fill="#fff"/>
<rect x="16" y="48" width="7" height="1" fill="#fff"/>
<rect x="42" y="48" width="7" height="1" fill="#fff"/>
<rect x="68" y="48" width="4" height="1" fill="#fff"/>
<rect x="92" y="48" width="8" height="1" fill="#fff"/>
<rect x="16" y="49" width="7" height="1" fill="#fff"/>
<rect x="42" y="49" width="8" height="1" fill="#fff"/>
<rect x="68" y="49" width="3" height="1" fill="#fff"/>
<rect x="91" y="49" width="9" height="1" fill="#fff"/>
<rect x="17" y="50" width="7" height="1" fill="#fff"/>
<rect x="42" y="50" width="8" height="1" fill="#fff"/>
<rect x="68" y="50" width="3" height="1" fill="#fff"/>
<rect x="91" y="50" width="10" height="1" fill="#fff"/>
<rect x="17" y="51" width="7" height="1" fill="#fff"/>
<rect x="41" y="51" width="9" height="1" fill="#fff"/>
<rect x="67" y="51" width="4" height="1" fill="#fff"/>
<rect x="91" y="51" width="3" height="1" fill="#fff"/>
<rect x="95" y="51" width="6" height="1" fill="#fff"/>
<rect x="18" y="52" width="6" height="1" fill="#fff"/>
<rect x="41" y="52" width="10" height="1" fill="#fff"/>
<rect x="67" y="52" width="3" height="1" fill="#fff"/>
<rect x="90" y="52" width="3" height="1" fill="#fff"/>
<rect x="95" y="52" width="7" height="1" fill="#fff"/>
<rect x="18" y="53" width="7" height="1" fill="#fff"/>
<rect x="41" y="53" width="10" height="1" fill="#fff"/>
<rect x="66" y="53" width="4" height="1" fill="#fff"/>
<rect x="90" y="53" width="3" height="1" fill="#fff"/>
<rect x="96" y="53" width="6" height="1" fill="#fff"/>
<rect x="18" y="54" width="7" height="1" fill="#fff"/>
<rect x="40" y="54" width="4" height="1" fill="#fff"/>
<rect x="45" y="54" width="6" height="1" fill="#fff"/>
<rect x="66" y="54" width="4" height="1" fill="#fff"/>
<rect x="89" y="54" width="3" height="1" fill="#fff"/>
<rect x="96" y="54" width="6" height="1" fill="#fff"/>
<rect x="19" y="55" width="6" height="1" fill="#fff"/>
<rect x="40" y="55" width="3" height="1" fill="#fff"/>
<rect x="45" y="55" width="7" height="1" fill="#fff"/>
<rect x="66" y="55" width="3" height="1" fill="#fff"/>
<rect x="89" y="55" width="3" height="1" fill="#fff"/>
<rect x="96" y="55" width="7" height="1" fill="#fff"/>
<rect x="19" y="56" width="7" height="1" fill="#fff"/>
<rect x="40" y="56" width="3" height="1" fill="#fff"/>
<rect x="45" y="56" width="7" height="1" fill="#fff"/>
<rect x="65" y="56" width="4" height="1" fill="#fff"/>
<rect x="89" y="56" width="3" height="1" fill="#fff"/>
<rect x="97" y="56" width="6" height="1" fill="#fff"/>
<rect x="19" y="57" width="7" height="1" fill="#fff"/>
<rect x="39" y="57" width="4" height="1" fill="#fff"/>
<rect x="46" y="57" width="6" height="1" fill="#fff"/>
<rect x="65" y="57" width="3" height="1" fill="#fff"/>
<rect x="88" y="57" width="3" height="1" fill="#fff"/>
<rect x="97" y="57" width="7" height="1" fill="#fff"/>
<rect x="20" y="58" width="6" height="1" fill="#fff"/>
<rect x="39" y="58" width="3" height="1" fill="#fff"/>
<rect x="46" y="58" width="6" height="1" fill="#fff"/>
<rect x="65" y="58" width="3" height="1" fill="#fff"/>
<rect x="88" y="58" width="3" height="1" fill="#fff"/>
<rect x="98" y="58" width="6" height="1" fill="#fff"/>
<rect x="20" y="59" width="7" height="1" fill="#fff"/>
<rect x="39" y="59" width="3" height="1" fill="#fff"/>
<rect x="46" y="59" width="7" height="1" fill="#fff"/>
<rect x="64" y="59" width="4" height="1" fill="#fff"/>
<rect x="87" y="59" width="3" height="1" fill="#fff"/>
<rect x="98" y="59" width="6" height="1" fill="#fff"/>
<rect x="20" y="60" width="7" height="1" fill="#fff"/>
<rect x="38" y="60" width="4" height="1" fill="#fff"/>
<rect x="47" y="60" width="6" height="1" fill="#fff"/>
<rect x="64" y="60" width="3" height="1" fill="#fff"/>
<rect x="87" y="60" width="3" height="1" fill="#fff"/>
<rect x="98" y="60" width="7" height="1" fill="#fff"/>
<rect x="21" y="61" width="6" height="1" fill="#fff"/>
<rect x="38" y="61" width="3" height="1" fill="#fff"/>
<rect x="47" y="61" width="6" height="1" fill="#fff"/>
<rect x="64" y="61" width="3" height="1" fill="#fff"/>
<rect x="87" y="61" width="3" height="1" fill="#fff"/>
<rect x="99" y="61" width="6" height="1" fill="#fff"/>
<rect x="21" y="62" width="7" height="1" fill="#fff"/>
<rect x="37" y="62" width="4" height="1" fill="#fff"/>
<rect x="47" y="62" width="7" height="1" fill="#fff"/>
<rect x="63" y="62" width="4" height="1" fill="#fff"/>
<rect x="86" y="62" width="3" height="1" fill="#fff"/>
<rect x="99" y="62" width="7" height="1" fill="#fff"/>
<rect x="22" y="63" width="6" height="1" fill="#fff"/>
<rect x="37" y="63" width="4" height="1" fill="#fff"/>
<rect x="48" y="63" width="6" height="1" fill="#fff"/>
<rect x="63" y="63" width="3" height="1" fill="#fff"/>
<rect x="86" y="63" width="3" height="1" fill="#fff"/>
<rect x="100" y="63" width="6" height="1" fill="#fff"/>
<rect x="22" y="64" width="6" height="1" fill="#fff"/>
<rect x="37" y="64" width="3" height="1" fill="#fff"/>
<rect x="48" y="64" width="6" height="1" fill="#fff"/>
<rect x="63" y="64" width="3" height="1" fill="#fff"/>
<rect x="85" y="64" width="4" height="1" fill="#fff"/>
<rect x="100" y="64" width="6" height="1" fill="#fff"/>
<rect x="22" y="65" width="7" height="1" fill="#fff"/>
<rect x="36" y="65" width="4" height="1" fill="#fff"/>
<rect x="48" y="65" width="7" height="1" fill="#fff"/>
<rect x="62" y="65" width="3" height="1" fill="#fff"/>
<rect x="85" y="65" width="3" height="1" fill="#fff"/>
<rect x="100" y="65" width="7" height="1" fill="#fff"/>
<rect x="23" y="66" width="6" height="1" fill="#fff"/>
<rect x="36" y="66" width="3" height="1" fill="#fff"/>
<rect x="49" y="66" width="6" height="1" fill="#fff"/>
<rect x="62" y="66" width="3" height="1" fill="#fff"/>
<rect x="85" y="66" width="3" height="1" fill="#fff"/>
<rect x="100" y="66" width="7" height="1" fill="#fff"/>
<rect x="23" y="67" width="6" height="1" fill="#fff"/>
<rect x="36" y="67" width="3" height="1" fill="#fff"/>
<rect x="49" y="67" width="6" height="1" fill="#fff"/>
<rect x="61" y="67" width="4" height="1" fill="#fff"/>
<rect x="84" y="67" width="24" height="1" fill="#fff"/>
<rect x="23" y="68" width="7" height="1" fill="#fff"/>
<rect x="35" y="68" width="4" height="1" fill="#fff"/>
<rect x="49" y="68" width="6" height="1" fill="#fff"/>
<rect x="61" y="68" width="3" height="1" fill="#fff"/>
<rect x="84" y="68" width="24" height="1" fill="#fff"/>
<rect x="24" y="69" width="6" height="1" fill="#fff"/>
<rect x="35" y="69" width="3" height="1" fill="#fff"/>
<rect x="50" y="69" width="6" height="1" fill="#fff"/>
<rect x="61" y="69" width="3" height="1" fill="#fff"/>
<rect x="83" y="69" width="26" height="1" fill="#fff"/>
<rect x="24" y="70" width="6" height="1" fill="#fff"/>
<rect x="35" y="70" width="3" height="1" fill="#fff"/>
<rect x="50" y="70" width="6" height="1" fill="#fff"/>
<rect x="60" y="70" width="3" height="1" fill="#fff"/>
<rect x="83" y="70" width="3" height="1" fill="#fff"/>
<rect x="102" y="70" width="7" height="1" fill="#fff"/>
<rect x="24" y="71" width="7" height="1" fill="#fff"/>
<rect x="34" y="71" width="4" height="1" fill="#fff"/>
<rect x="50" y="71" width="6" height="1" fill="#fff"/>
<rect x="60" y="71" width="3" height="1" fill="#fff"/>
<rect x="83" y="71" width="3" height="1" fill="#fff"/>
<rect x="103" y="71" width="6" height="1" fill="#fff"/>
<rect x="25" y="72" width="6" height="1" fill="#fff"/>
<rect x="34" y="72" width="3" height="1" fill="#fff"/>
<rect x="51" y="72" width="6" height="1" fill="#fff"/>
<rect x="60" y="72" width="3" height="1" fill="#fff"/>
<rect x="82" y="72" width="3" height="1" fill="#fff"/>
<rect x="103" y="72" width="7" height="1" fill="#fff"/>
<rect x="25" y="73" width="6" height="1" fill="#fff"/>
<rect x="34" y="73" width="3" height="1" fill="#fff"/>
<rect x="51" y="73" width="6" height="1" fill="#fff"/>
<rect x="59" y="73" width="3" height="1" fill="#fff"/>
<rect x="82" y="73" width="3" height="1" fill="#fff"/>
<rect x="103" y="73" width="7" height="1" fill="#fff"/>
<rect x="26" y="74" width="6" height="1" fill="#fff"/>
<rect x="33" y="74" width="3" height="1" fill="#fff"/>
<rect x="51" y="74" width="6" height="1" fill="#fff"/>
<rect x="59" y="74" width="3" height="1" fill="#fff"/>
<rect x="81" y="74" width="4" height="1" fill="#fff"/>
<rect x="104" y="74" width="7" height="1" fill="#fff"/>
<rect x="26" y="75" width="6" height="1" fill="#fff"/>
<rect x="33" y="75" width="3" height="1" fill="#fff"/>
<rect x="52" y="75" width="5" height="1" fill="#fff"/>
<rect x="59" y="75" width="3" height="1" fill="#fff"/>
<rect x="81" y="75" width="3" height="1" fill="#fff"/>
<rect x="104" y="75" width="7" height="1" fill="#fff"/>
<rect x="26" y="76" width="10" height="1" fill="#fff"/>
<rect x="52" y="76" width="9" height="1" fill="#fff"/>
<rect x="81" y="76" width="3" height="1" fill="#fff"/>
<rect x="104" y="76" width="7" height="1" fill="#fff"/>
<rect x="27" y="77" width="8" height="1" fill="#fff"/>
<rect x="52" y="77" width="9" height="1" fill="#fff"/>
<rect x="80" y="77" width="3" height="1" fill="#fff"/>
<rect x="105" y="77" width="7" height="1" fill="#fff"/>
<rect x="27" y="78" width="8" height="1" fill="#fff"/>
<rect x="53" y="78" width="7" height="1" fill="#fff"/>
<rect x="80" y="78" width="3" height="1" fill="#fff"/>
<rect x="105" y="78" width="7" height="1" fill="#fff"/>
<rect x="27" y="79" width="8" height="1" fill="#fff"/>
<rect x="53" y="79" width="7" height="1" fill="#fff"/>
<rect x="79" y="79" width="4" height="1" fill="#fff"/>
<rect x="105" y="79" width="8" height="1" fill="#fff"/>
<rect x="28" y="80" width="6" height="1" fill="#fff"/>
<rect x="53" y="80" width="7" height="1" fill="#fff"/>
<rect x="79" y="80" width="4" height="1" fill="#fff"/>
<rect x="106" y="80" width="7" height="1" fill="#fff"/>
<rect x="28" y="81" width="6" height="1" fill="#fff"/>
<rect x="54" y="81" width="5" height="1" fill="#fff"/>
<rect x="78" y="81" width="5" height="1" fill="#fff"/>
<rect x="106" y="81" width="8" height="1" fill="#fff"/>
<rect x="28" y="82" width="5" height="1" fill="#fff"/>
<rect x="54" y="82" width="5" height="1" fill="#fff"/>
<rect x="77" y="82" width="6" height="1" fill="#fff"/>
<rect x="105" y="82" width="10" height="1" fill="#fff"/>
<rect x="29" y="83" width="4" height="1" fill="#fff"/>
<rect x="54" y="83" width="5" height="1" fill="#fff"/>
<rect x="74" y="83" width="11" height="1" fill="#fff"/>
<rect x="102" y="83" width="15" height="1" fill="#fff"/>
<rect x="29" y="84" width="4" height="1" fill="#fff"/>
<rect x="55" y="84" width="3" height="1" fill="#fff"/>
<rect x="73" y="84" width="14" height="1" fill="#fff"/>
<rect x="100" y="84" width="19" height="1" fill="#fff"/>
<rect x="30" y="85" width="2" height="1" fill="#fff"/>
<rect x="55" y="85" width="3" height="1" fill="#fff"/>
<rect x="73" y="85" width="14" height="1" fill="#fff"/>
<rect x="100" y="85" width="19" height="1" fill="#fff"/>
<rect x="56" y="86" width="1" height="1" fill="#fff"/>
</g>
</svg>